<svg width="40" height="40" viewBox="0 0 40 40" fill="none" xmlns="http://www.w3.org/2000/svg">
<rect width="40" height="40" rx="3" fill="black"/>
<path d="M9.29695 19.9219C10.6251 22.2656 13.1251 23.6719 17.2657 24.0625C16.6407 24.5312 15.9376 25.3906 15.8595 26.4062C15.0782 26.875 13.5938 27.0312 12.422 26.6406C10.7813 26.0937 10.1563 22.8906 7.65632 23.3594C7.10945 23.4375 7.18757 23.8281 7.65632 24.1406C8.43757 24.6094 9.29695 25.3906 9.68757 26.4844C10.6251 28.9062 12.5782 29.5312 15.7032 29.0625V32.5781C15.7032 33.6719 14.1407 33.9844 14.1407 34.5312C14.1407 34.7656 14.6876 34.7656 15.0782 34.7656C15.8595 34.7656 17.5782 34.0625 17.5782 32.9687C17.5782 32.0312 17.5782 28.9062 17.6563 28.3594C17.6563 27.1875 18.2813 26.7969 18.2813 26.7969C18.2813 26.7969 18.3595 33.2031 18.1251 33.9844C17.8126 35 17.3438 34.8437 17.3438 35.3125C17.3438 36.0156 19.3751 35.4687 20.0782 33.9844C20.6251 32.8125 20.3907 26.5625 20.3126 26.6406H20.8595C20.8595 26.6406 20.8595 29.5312 20.9376 30.7812C20.9376 32.1094 20.8595 33.8281 21.6407 34.6875C22.1876 35.2344 23.9063 36.1719 23.9063 35.3125C23.9063 34.8437 22.9688 34.375 22.9688 33.0469V26.875C23.7501 26.875 23.5938 28.9062 23.5938 28.9062L23.672 32.6562C23.672 32.6562 23.5157 34.0625 25.1563 34.6094C25.7813 34.8437 27.0313 34.8437 27.1095 34.5312C27.1876 34.2187 25.547 33.6719 25.547 32.5781V28.75C25.547 25.9375 25.1563 24.9219 23.8282 24.0625C27.9688 23.6719 30.547 22.6562 31.797 19.9219C32.5782 18.3594 32.7345 16.4844 32.7345 15.0781C32.7345 11.1719 30.8595 9.84374 30.4688 9.14061C31.0157 6.17186 30.3907 4.84374 30.0782 4.45311C28.9845 4.06249 26.3282 5.39061 24.922 6.32811C22.5782 5.62499 17.5782 5.70311 15.7032 6.48436C12.2657 4.06249 10.4688 4.45311 10.4688 4.45311C10.4688 4.45311 9.29695 6.56249 10.1563 9.60936C8.98445 11.0156 8.2032 12.0312 8.12507 14.6875C8.12507 16.7969 8.35945 18.125 9.29695 19.9219Z" fill="white"/>
</svg>
